<?xml version="1.0" encoding="utf-8"?>
<!-- Generator: Adobe Illustrator 16.0.3, SVG Export Plug-In . SVG Version: 6.00 Build 0)  -->
<!DOCTYPE svg PUBLIC "-//W3C//DTD SVG 1.1//EN" "http://www.w3.org/Graphics/SVG/1.1/DTD/svg11.dtd">
<svg version="1.1" id="Capa_1" xmlns="http://www.w3.org/2000/svg" xmlns:xlink="http://www.w3.org/1999/xlink" x="0px" y="0px"
	 width="612px" height="612px" viewBox="0 0 612 612" enable-background="new 0 0 612 612" xml:space="preserve">
<g>
	<g id="_x32__38_">
		<g>
			<path fill="#FF9800" stroke="#000000" stroke-miterlimit="10" d="M306,0C136.992,0,0,136.992,0,306s136.992,306,306,306
				s306-137.012,306-306S475.008,0,306,0z M469.251,392.751c-7.479,7.479-19.584,7.479-27.043,0L306,256.543L169.811,392.731
				c-7.478,7.479-19.584,7.479-27.043,0c-7.478-7.479-7.478-19.584,0-27.043l146.44-146.439c4.59-4.59,10.863-6.005,16.812-4.973
				c5.929-1.052,12.221,0.383,16.811,4.973l146.439,146.439C476.71,373.167,476.71,385.272,469.251,392.751z"/>
		</g>
	</g>
</g>
</svg>
